Coordinates
version=1
nRows=9
nColumns=36
inDegrees=yes

Units are S.I. units (second, meters, Newtons, ...)
If the header above contains a line with 'inDegrees', this indicates whether rotational values are in degrees (yes) or radians (no).

endheader
time	pelvis_tilt	pelvis_list	pelvis_rotation	pelvis_tx	pelvis_ty	pelvis_tz	hip_flexion_r	hip_adduction_r	hip_rotation_r	knee_angle_r	knee_angle_r_beta	ankle_angle_r	subtalar_angle_r	mtp_angle_r	hip_flexion_l	hip_adduction_l	hip_rotation_l	knee_angle_l	knee_angle_l_beta	ankle_angle_l	subtalar_angle_l	mtp_angle_l	lumbar_extension	lumbar_bending	lumbar_rotation	arm_flex_r	arm_add_r	arm_rot_r	elbow_flex_r	pro_sup_r	arm_flex_l	arm_add_l	arm_rot_l	elbow_flex_l	pro_sup_l
      0.85000000	     -3.64909515	     10.28892475	      1.91830952	      0.75493222	      0.91158834	     -0.20461526	    -20.00307527	     -5.63268731	     -5.19004671	     19.64449044	      0.34286104	     -5.58119840	     -9.79952613	     -7.26461493	     18.97980400	     12.70849930	      8.08465149	      9.15818937	      0.15984056	     -6.88118739	     -8.43484124	     -7.26461493	     -7.50038885	    -20.25116117	      1.89289358	     -8.41312710	     -2.82536295	      0.56953098	     36.22257842	    100.11634800	    -11.83212554	     -6.58403100	    -33.31360934	     31.15082071	     95.63920626
      0.86000000	     -3.99230576	     10.18447116	      2.01313883	      0.76511763	      0.91314027	     -0.20503079	    -18.54621798	     -5.71008782	     -4.60856350	     22.29982370	      0.38920535	     -7.51802462	    -10.49801376	     -7.27018349	     18.61099193	     12.72594014	      8.22681081	      9.16978758	      0.16004298	     -6.36160192	     -8.66616784	     -7.27018349	     -7.24619027	    -20.45346260	      2.25789696	     -8.83453583	     -3.22379817	      1.25619107	     36.94247857	    100.29228675	    -11.48745465	     -6.54565659	    -33.45875478	     31.59632063	     95.65959501
      0.87000000	     -4.33296268	     10.05260303	      2.01489578	      0.77510898	      0.91464066	     -0.20538798	    -16.90655579	     -5.81123406	     -4.02040132	     25.14570283	      0.43887531	     -9.64508432	    -11.19657104	     -7.27426066	     18.24930054	     12.67443492	      8.31188962	      9.16172103	      0.15990220	     -5.78135232	     -8.82760295	     -7.27426066	     -6.95254382	    -20.59357555	      2.69217508	     -9.22294662	     -3.66386068	      1.88310826	     37.65786404	    100.43804508	    -11.13286865	     -6.45580206	    -33.59340011	     32.09184857	     95.68282951
      0.88000000	     -4.67501438	      9.78498590	      2.02081193	      0.78469612	      0.91608750	     -0.20554560	    -15.16031076	     -5.66296178	     -3.14962481	     28.00819724	      0.48883526	    -12.38634097	    -12.77861205	     -7.28429798	     18.00420542	     12.44843857	      8.24939806	      9.31966016	      0.16265875	     -5.16660153	     -8.80883823	     -7.28429798	     -6.71438576	    -20.56523702	      2.93354861	     -9.41332909	     -4.12427836	      2.63014157	     38.37885381	    100.61024699	    -10.82002180	     -6.25756714	    -34.04262106	     32.70055313	     95.67613715
      0.89000000	     -4.95493832	      9.69758261	      1.99290047	      0.79416912	      0.91741359	     -0.20580200	    -13.29846805	     -5.85908297	     -2.77552310	     31.16681555	      0.54396355	    -14.18784624	    -12.96108406	     -7.28734831	     17.59308484	     12.40038745	      8.40174628	      9.26400740	      0.16168743	     -4.57363512	     -8.85425295	     -7.28734831	     -6.54431000	    -20.70235535	      3.21902559	     -9.60779268	     -4.50745880	      2.95965462	     39.00115658	    100.69661153	    -10.47627719	     -6.13531010	    -34.14638299	     33.28225464	     95.71446120
      0.90000000	     -4.78367113	      9.40782317	      1.97782711	      0.80322043	      0.91921315	     -0.20582169	    -11.97225029	     -5.68114688	     -2.15283291	     34.05486201	      0.59436947	    -15.44596069	    -12.85800115	     -7.28827622	     16.77228169	     12.11420774	      8.61735250	      9.32066956	      0.16267637	     -4.29910096	     -8.82616270	     -7.28827622	     -7.06904647	    -20.54936761	      3.07743585	     -9.38894412	     -4.78154744	      3.01157274	     39.33756991	    100.72828770	    -10.03881864	     -6.05567738	    -34.13762022	     33.63929332	     95.74653210
      0.91000000	     -5.60810598	      9.46481608	      1.93032137	      0.81225972	      0.91933383	     -0.20604124	     -9.16975657	     -6.10249615	     -1.98678994	     37.61887680	      0.65657326	    -18.10179542	    -14.92321419	     -7.30257241	     17.06050531	     12.19546421	      8.55121016	      9.41363327	      0.16429890	     -3.41904760	     -8.78973355	     -7.30257241	     -6.20258622	    -20.87255457	      3.43082407	     -9.84845559	     -5.14280912	      3.20206767	     40.34011273	    100.88078682	     -9.94982709	     -5.71737726	    -35.10702569	     34.98037606	     95.78267934
      0.92000000	     -5.83282301	      9.50385622	      1.89319885	      0.82110667	      0.92007435	     -0.20618943	     -7.12838144	     -6.46398905	     -1.86639915	     40.87885640	      0.71347064	    -19.07690228	    -15.31947186	     -7.30592229	     16.57516095	     12.24825827	      8.76375022	      9.23877040	      0.16124696	     -2.90821142	     -8.79343541	     -7.30592229	     -6.16553113	    -21.08608611	      3.40286907	     -9.85813400	     -5.37881017	      3.17186380	     40.81872545	    100.92395961	     -9.71134054	     -5.64494004	    -35.08245930	     35.73324004	     95.86214752
      0.93000000	     -5.99415997	      9.58163828	      1.84237756	      0.82975409	      0.92071174	     -0.20634830	     -5.12217771	     -6.86897079	     -1.76211158	     44.05064041	      0.76882871	    -19.73744597	    -15.97785427	     -7.30834131	     15.98847946	     12.33226111	      8.94180063	      8.96390988	      0.15644974	     -2.41125826	     -8.77855874	     -7.30834131	     -6.24362466	    -21.29473462	      3.24945865	     -9.76304718	     -5.54802959	      2.99970353	     41.21514643	    100.94013430	     -9.48945687	     -5.59154562	    -34.99954427	     36.52286515	     95.95008395
